<mxfile host="app.diagrams.net" modified="2021-11-10T19:56:00.490Z" agent="5.0 (X11; Linux x86_64) AppleWebKit/537.36 (KHTML, like Gecko) Chrome/93.0.4577.63 Safari/537.36" etag="tqhufqq5V06gNpPJoNWN" version="14.9.8" type="github">
  <diagram id="kgpKYQtTHZ0yAKxKKP6v" name="Page-1">
    <mxGraphModel dx="868" dy="412" grid="1" gridSize="8" guides="1" tooltips="1" connect="1" arrows="1" fold="1" page="1" pageScale="1" pageWidth="827" pageHeight="1169" background="none" math="0" shadow="1">
      <root>
        <mxCell id="0" />
        <mxCell id="1" parent="0" />
        <mxCell id="3nuBFxr9cyL0pnOWT2aG-1" value="Sensor 1" style="shape=umlLifeline;perimeter=lifelinePerimeter;container=1;collapsible=0;recursiveResize=0;shadow=0;strokeWidth=1;rounded=1;fillColor=#f8cecc;strokeColor=#b85450;fontStyle=1" parent="1" vertex="1">
          <mxGeometry x="120" y="80" width="120" height="40" as="geometry" />
        </mxCell>
        <mxCell id="3nuBFxr9cyL0pnOWT2aG-5" value="Sensor 2" style="shape=umlLifeline;perimeter=lifelinePerimeter;container=1;collapsible=0;recursiveResize=0;shadow=0;strokeWidth=1;rounded=1;fillColor=#d5e8d4;strokeColor=#82b366;fontStyle=1" parent="1" vertex="1">
          <mxGeometry x="280" y="80" width="110" height="40" as="geometry" />
        </mxCell>
        <mxCell id="KdVAdE9Od_aPjWwAGC_J-1" value="&lt;b&gt;Sensor 3&lt;/b&gt;" style="whiteSpace=wrap;html=1;rounded=1;fillColor=#ffe6cc;strokeColor=#d79b00;" vertex="1" parent="1">
          <mxGeometry x="440" y="80" width="120" height="40" as="geometry" />
        </mxCell>
        <mxCell id="KdVAdE9Od_aPjWwAGC_J-2" value="&lt;b&gt;Sensor 4&lt;/b&gt;" style="whiteSpace=wrap;html=1;rounded=1;fillColor=#f5f5f5;strokeColor=#666666;fontColor=#333333;" vertex="1" parent="1">
          <mxGeometry x="610" y="80" width="110" height="40" as="geometry" />
        </mxCell>
        <mxCell id="KdVAdE9Od_aPjWwAGC_J-3" value="" style="endArrow=classic;html=1;exitX=0.608;exitY=1.025;exitDx=0;exitDy=0;exitPerimeter=0;" edge="1" parent="1" source="3nuBFxr9cyL0pnOWT2aG-1">
          <mxGeometry width="50" height="50" relative="1" as="geometry">
            <mxPoint x="400" y="240" as="sourcePoint" />
            <mxPoint x="235" y="260" as="targetPoint" />
            <Array as="points" />
          </mxGeometry>
        </mxCell>
        <mxCell id="KdVAdE9Od_aPjWwAGC_J-4" value="" style="endArrow=classic;html=1;exitX=0.473;exitY=1.025;exitDx=0;exitDy=0;exitPerimeter=0;entryX=0.75;entryY=0;entryDx=0;entryDy=0;" edge="1" parent="1" source="3nuBFxr9cyL0pnOWT2aG-5" target="KdVAdE9Od_aPjWwAGC_J-5">
          <mxGeometry width="50" height="50" relative="1" as="geometry">
            <mxPoint x="320" y="150" as="sourcePoint" />
            <mxPoint x="281" y="255" as="targetPoint" />
            <Array as="points" />
          </mxGeometry>
        </mxCell>
        <mxCell id="KdVAdE9Od_aPjWwAGC_J-28" value="" style="edgeStyle=orthogonalEdgeStyle;orthogonalLoop=1;jettySize=auto;html=1;entryX=0;entryY=0.398;entryDx=0;entryDy=0;entryPerimeter=0;" edge="1" parent="1" source="KdVAdE9Od_aPjWwAGC_J-5" target="KdVAdE9Od_aPjWwAGC_J-25">
          <mxGeometry relative="1" as="geometry">
            <mxPoint x="405" y="315" as="targetPoint" />
          </mxGeometry>
        </mxCell>
        <mxCell id="KdVAdE9Od_aPjWwAGC_J-5" value="&lt;b&gt;&lt;font style=&quot;font-size: 20px ; line-height: 10%&quot;&gt;Controller&lt;/font&gt;&lt;/b&gt;" style="shape=image;html=1;verticalAlign=top;verticalLabelPosition=bottom;labelBackgroundColor=#ffffff;imageAspect=0;aspect=fixed;image=https://cdn2.iconfinder.com/data/icons/electronic-13/480/3-electronic-arduino-chipset-icon-2-128.png;strokeWidth=2;whiteSpace=wrap;spacing=2;horizontal=1;labelBorderColor=none;imageBorder=#000000;rounded=1;spacingTop=0;" vertex="1" parent="1">
          <mxGeometry x="200" y="260" width="90" height="90" as="geometry" />
        </mxCell>
        <mxCell id="KdVAdE9Od_aPjWwAGC_J-6" value="&lt;b&gt;&lt;font style=&quot;font-size: 20px ; line-height: 0%&quot;&gt;Controller&lt;/font&gt;&lt;/b&gt;" style="shape=image;html=1;verticalAlign=top;verticalLabelPosition=bottom;labelBackgroundColor=#ffffff;imageAspect=0;aspect=fixed;image=https://cdn2.iconfinder.com/data/icons/electronic-13/480/3-electronic-arduino-chipset-icon-2-128.png;strokeWidth=2;rounded=1;imageBorder=#000000;perimeterSpacing=0;" vertex="1" parent="1">
          <mxGeometry x="500" y="260" width="90" height="90" as="geometry" />
        </mxCell>
        <mxCell id="KdVAdE9Od_aPjWwAGC_J-9" style="edgeStyle=orthogonalEdgeStyle;orthogonalLoop=1;jettySize=auto;html=1;exitX=0.5;exitY=1;exitDx=0;exitDy=0;" edge="1" parent="1" source="KdVAdE9Od_aPjWwAGC_J-6" target="KdVAdE9Od_aPjWwAGC_J-6">
          <mxGeometry relative="1" as="geometry" />
        </mxCell>
        <mxCell id="KdVAdE9Od_aPjWwAGC_J-12" value="" style="endArrow=classic;html=1;entryX=0.25;entryY=0;entryDx=0;entryDy=0;" edge="1" parent="1" target="KdVAdE9Od_aPjWwAGC_J-6">
          <mxGeometry width="50" height="50" relative="1" as="geometry">
            <mxPoint x="490" y="120" as="sourcePoint" />
            <mxPoint x="530" y="280" as="targetPoint" />
            <Array as="points" />
          </mxGeometry>
        </mxCell>
        <mxCell id="KdVAdE9Od_aPjWwAGC_J-16" value="" style="endArrow=classic;html=1;exitX=0.473;exitY=1.025;exitDx=0;exitDy=0;exitPerimeter=0;" edge="1" parent="1">
          <mxGeometry width="50" height="50" relative="1" as="geometry">
            <mxPoint x="632.03" y="120" as="sourcePoint" />
            <mxPoint x="570" y="260" as="targetPoint" />
            <Array as="points" />
          </mxGeometry>
        </mxCell>
        <mxCell id="KdVAdE9Od_aPjWwAGC_J-17" value="&lt;font style=&quot;font-size: 15px&quot;&gt;{ SEND DATA TO CONTROLLER }&lt;/font&gt;" style="text;html=1;strokeColor=none;fillColor=none;align=center;verticalAlign=middle;whiteSpace=wrap;rounded=1;" vertex="1" parent="1">
          <mxGeometry x="340" y="190" width="130" height="70" as="geometry" />
        </mxCell>
        <mxCell id="KdVAdE9Od_aPjWwAGC_J-25" value="&lt;b&gt;&lt;font style=&quot;font-size: 20px&quot;&gt;Processor&lt;/font&gt;&lt;/b&gt;" style="shape=image;html=1;verticalAlign=top;verticalLabelPosition=bottom;labelBackgroundColor=#ffffff;imageAspect=0;aspect=fixed;image=https://cdn1.iconfinder.com/data/icons/computer-hardware-glyphs-vol-2/52/intel__electronics__desktop__device__processor__hardware__cpu-128.png;strokeWidth=2;rounded=1;imageBorder=#000000;" vertex="1" parent="1">
          <mxGeometry x="340" y="440" width="130" height="130" as="geometry" />
        </mxCell>
        <mxCell id="KdVAdE9Od_aPjWwAGC_J-30" style="edgeStyle=orthogonalEdgeStyle;orthogonalLoop=1;jettySize=auto;html=1;exitX=0.5;exitY=1;exitDx=0;exitDy=0;" edge="1" parent="1" source="KdVAdE9Od_aPjWwAGC_J-5" target="KdVAdE9Od_aPjWwAGC_J-5">
          <mxGeometry relative="1" as="geometry" />
        </mxCell>
        <mxCell id="KdVAdE9Od_aPjWwAGC_J-36" value="" style="edgeStyle=orthogonalEdgeStyle;orthogonalLoop=1;jettySize=auto;html=1;exitX=1;exitY=0.5;exitDx=0;exitDy=0;" edge="1" parent="1" source="KdVAdE9Od_aPjWwAGC_J-6">
          <mxGeometry relative="1" as="geometry">
            <mxPoint x="620" y="310" as="sourcePoint" />
            <mxPoint x="470" y="496" as="targetPoint" />
            <Array as="points">
              <mxPoint x="590" y="310" />
              <mxPoint x="630" y="310" />
              <mxPoint x="630" y="496" />
            </Array>
          </mxGeometry>
        </mxCell>
        <mxCell id="KdVAdE9Od_aPjWwAGC_J-37" value="&lt;font style=&quot;font-size: 15px&quot;&gt;{ NOW CONTROLLER SEND DATA TO PROCESSOR }&lt;/font&gt;" style="text;html=1;strokeColor=none;fillColor=none;align=center;verticalAlign=middle;whiteSpace=wrap;rounded=1;" vertex="1" parent="1">
          <mxGeometry x="325" y="350" width="160" height="70" as="geometry" />
        </mxCell>
        <mxCell id="KdVAdE9Od_aPjWwAGC_J-38" value="" style="ellipse;shape=cloud;whiteSpace=wrap;html=1;rounded=1;strokeWidth=2;gradientColor=none;verticalAlign=top;" vertex="1" parent="1">
          <mxGeometry x="485" y="620" width="145" height="90" as="geometry" />
        </mxCell>
        <mxCell id="KdVAdE9Od_aPjWwAGC_J-39" value="&lt;b&gt;&lt;font style=&quot;font-size: 20px&quot;&gt;Cloud&lt;/font&gt;&lt;/b&gt;" style="text;html=1;align=center;verticalAlign=middle;resizable=0;points=[];autosize=1;strokeColor=none;" vertex="1" parent="1">
          <mxGeometry x="525" y="720" width="70" height="20" as="geometry" />
        </mxCell>
        <mxCell id="KdVAdE9Od_aPjWwAGC_J-40" value="" style="edgeStyle=orthogonalEdgeStyle;orthogonalLoop=1;jettySize=auto;html=1;entryX=0.524;entryY=0.111;entryDx=0;entryDy=0;entryPerimeter=0;" edge="1" parent="1" target="KdVAdE9Od_aPjWwAGC_J-38">
          <mxGeometry relative="1" as="geometry">
            <mxPoint x="470" y="548" as="sourcePoint" />
            <mxPoint x="560" y="620" as="targetPoint" />
          </mxGeometry>
        </mxCell>
        <mxCell id="KdVAdE9Od_aPjWwAGC_J-41" value="&lt;b&gt;&lt;font style=&quot;font-size: 14px&quot;&gt;PROGRESSIVE WEB MONITORING&lt;/font&gt;&lt;/b&gt;" style="rounded=1;whiteSpace=wrap;html=1;strokeWidth=2;gradientColor=none;verticalAlign=top;" vertex="1" parent="1">
          <mxGeometry x="150" y="640" width="150" height="50" as="geometry" />
        </mxCell>
        <mxCell id="KdVAdE9Od_aPjWwAGC_J-44" value="" style="endArrow=classic;html=1;entryX=1;entryY=0.5;entryDx=0;entryDy=0;exitX=0.11;exitY=0.5;exitDx=0;exitDy=0;exitPerimeter=0;" edge="1" parent="1" source="KdVAdE9Od_aPjWwAGC_J-38" target="KdVAdE9Od_aPjWwAGC_J-41">
          <mxGeometry width="50" height="50" relative="1" as="geometry">
            <mxPoint x="494" y="665" as="sourcePoint" />
            <mxPoint x="460" y="620" as="targetPoint" />
          </mxGeometry>
        </mxCell>
      </root>
    </mxGraphModel>
  </diagram>
</mxfile>
